<svg xmlns="http://www.w3.org/2000/svg" height="48" width="48"><path d="M7 40Q5.75 40 4.875 39.125Q4 38.25 4 37V15Q4 13.75 4.875 12.875Q5.75 12 7 12H19.7L23.7 8H41Q42.25 8 43.125 8.875Q44 9.75 44 11V37Q44 38.25 43.125 39.125Q42.25 40 41 40ZM9.95 26H22Q22 26 22 26Q22 26 22 26V13.95ZM7 24.7 16.7 15H7Q7 15 7 15Q7 15 7 15ZM7 29V37Q7 37 7 37Q7 37 7 37H41Q41 37 41 37Q41 37 41 37V11Q41 11 41 11Q41 11 41 11H25V26Q25 27.25 24.125 28.125Q23.25 29 22 29ZM22.5 22.5Q22.5 22.5 22.5 22.5Q22.5 22.5 22.5 22.5Q22.5 22.5 22.5 22.5Q22.5 22.5 22.5 22.5Q22.5 22.5 22.5 22.5Q22.5 22.5 22.5 22.5Q22.5 22.5 22.5 22.5Q22.5 22.5 22.5 22.5Z"/></svg>